<?xml version='1.0' encoding='iso-8859-1'?>
<!DOCTYPE svg PUBLIC '-//W3C//DTD SVG 1.1//EN' 'http://www.w3.org/Graphics/SVG/1.1/DTD/svg11.dtd'>
<svg version="1.1" xmlns="http://www.w3.org/2000/svg" viewBox="0 0 297 297" xmlns:xlink="http://www.w3.org/1999/xlink" width="26" height="26" enable-background="new 0 0 297 297" fill="#fff">
  <g>
    <path d="m148.5,70.879c-15.685,0-28.445,12.761-28.445,28.446 0,15.685 12.761,28.445 28.445,28.445s28.445-12.761 28.445-28.445c0-15.686-12.76-28.446-28.445-28.446zm0,40.087c-6.419,0-11.641-5.222-11.641-11.641 0-6.419 5.222-11.642 11.641-11.642s11.641,5.222 11.641,11.642c0,6.418-5.222,11.641-11.641,11.641z"/>
    <path d="m256.741,86.593h-18.101c-1.419-4.256-3.143-8.411-5.159-12.433l12.806-12.805c3.281-3.281 3.281-8.602 0-11.883l-30.616-30.616c-3.282-3.28-8.601-3.28-11.883,0l-12.805,12.806c-4.024-2.016-8.177-3.74-12.433-5.159v-18.101c0-4.64-3.762-8.402-8.402-8.402h-43.297c-4.64,0-8.402,3.762-8.402,8.402v18.101c-4.255,1.419-8.409,3.143-12.433,5.159l-12.805-12.805c-3.28-3.28-8.6-3.279-11.882,0l-30.616,30.614c-1.575,1.576-2.461,3.713-2.461,5.942 0,2.228 0.885,4.365 2.461,5.942l12.806,12.805c-2.016,4.023-3.74,8.177-5.159,12.433h-18.101c-4.64,0-8.402,3.762-8.402,8.402v43.296c0,4.64 3.762,8.402 8.402,8.402h18.101c1.419,4.256 3.143,8.41 5.159,12.433l-12.806,12.805c-1.575,1.576-2.461,3.714-2.461,5.942 0,2.229 0.885,4.365 2.461,5.942l30.616,30.615c3.282,3.28 8.601,3.28 11.883,0l7.41-7.41c0.21,0.529 0.454,1.046 0.77,1.526l14.517,22.09v57.962c0,4.64 3.762,8.402 8.402,8.402h48.381c4.64,0 8.402-3.762 8.402-8.402v-57.962l14.517-22.09c0.316-0.48 0.56-0.997 0.769-1.526l7.41,7.41c3.28,3.278 8.599,3.28 11.883,0l30.616-30.615c1.575-1.576 2.461-3.713 2.461-5.942 0-2.228-0.885-4.365-2.461-5.942l-12.806-12.805c2.016-4.024 3.74-8.178 5.159-12.433h18.101c4.64,0 8.402-3.762 8.402-8.402v-43.296c-0.002-4.64-3.764-8.402-8.404-8.402zm-76.556,114.825l-14.517,22.09c-0.901,1.371-1.38,2.974-1.38,4.614v52.074h-31.576v-52.074c0-1.64-0.48-3.244-1.38-4.614l-14.517-22.09v-40.701c0-4.883 3.093-9.203 7.706-10.78l1.796-.551 15.896,17.925c1.595,1.798 3.883,2.827 6.286,2.827s4.692-1.029 6.286-2.827l15.896-17.925 1.796,.551c4.613,1.576 7.706,5.897 7.706,10.78v40.701zm-2.472-67.451c-0.065-0.021-7.267-2.231-7.267-2.231-3.15-0.966-6.568-0.004-8.75,2.458l-13.194,14.877-13.194-14.878c-2.184-2.462-5.607-3.424-8.75-2.458 0,0-7.202,2.21-7.267,2.231-7.177,2.393-12.886,7.463-16.176,13.88-6.124-8.878-9.72-19.626-9.72-31.204 0-30.386 24.721-55.107 55.107-55.107s55.107,24.721 55.107,55.107c0,11.576-3.601,22.319-9.725,31.196-3.29-6.413-8.997-11.479-16.171-13.871zm70.628-4.078h-15.974c-3.834,0-7.182,2.595-8.137,6.308-1.816,7.056-4.63,13.837-8.363,20.156-1.95,3.3-1.418,7.504 1.293,10.215l11.306,11.305-18.733,18.732-11.306-11.305c-0.439-0.439-0.928-0.799-1.435-1.121v-17.214c13.208-12.726 21.445-30.575 21.445-50.322 0-38.562-31.372-69.934-69.934-69.934s-69.934,31.372-69.934,69.934c0,19.747 8.237,37.595 21.445,50.32v17.214c-0.508,0.323-0.997,0.683-1.436,1.123l-11.306,11.305-18.733-18.732 11.306-11.305c2.711-2.712 3.243-6.915 1.292-10.216-3.732-6.316-6.545-13.097-8.362-20.154-0.955-3.714-4.302-6.308-8.137-6.308h-15.975v-26.492h15.974c3.834,0 7.182-2.596 8.137-6.308 1.817-7.058 4.63-13.839 8.362-20.155 1.951-3.301 1.419-7.504-1.292-10.216l-11.305-11.306 18.733-18.732 11.306,11.305c2.71,2.71 6.914,3.244 10.214,1.293 6.319-3.733 13.101-6.547 20.155-8.363 3.714-0.955 6.308-4.302 6.308-8.137v-15.974h26.493v15.974c0,3.834 2.595,7.182 6.308,8.137 7.055,1.816 13.836,4.63 20.155,8.363 3.3,1.951 7.503,1.417 10.215-1.293l11.306-11.306 18.733,18.733-11.306,11.305c-2.711,2.712-3.243,6.915-1.292,10.216 3.732,6.316 6.545,13.098 8.362,20.155 0.955,3.713 4.302,6.308 8.137,6.308h15.974v26.492z"/>
  </g>
</svg>
