<svg xmlns="http://www.w3.org/2000/svg" xmlns:svgjs="http://svgjs.com/svgjs" xmlns:xlink="http://www.w3.org/1999/xlink" width="24" height="24"><svg xmlns="http://www.w3.org/2000/svg" width="24" height="24" fill="none" viewBox="0 0 24 24"><path fill="#fff" d="M18.052 14.762c.086.134.21.238.353.306A3.25 3.25 0 0 1 20.25 18v2a.75.75 0 0 0 1.5 0v-2A4.75 4.75 0 0 0 17 13.25c-.109 0-.158.14-.076.211a6.03 6.03 0 0 1 1.128 1.301Z" class="color000 svgShape"/><path fill="#fff" fill-rule="evenodd" d="M7 14.75A3.25 3.25 0 0 0 3.75 18v2a.75.75 0 0 1-1.5 0v-2A4.75 4.75 0 0 1 7 13.25h6A4.75 4.75 0 0 1 17.75 18v2a.75.75 0 0 1-1.5 0v-2A3.25 3.25 0 0 0 13 14.75H7Z" class="color000 svgShape" clip-rule="evenodd"/><path fill="#fff" d="M14.87 9.557c.09-.169.23-.304.396-.4a2.499 2.499 0 0 0 0-4.314 1.03 1.03 0 0 1-.396-.4 5.514 5.514 0 0 0-.933-1.283C13.88 3.1 13.917 3 14 3a4 4 0 0 1 0 8c-.083 0-.12-.1-.063-.16.37-.378.685-.81.933-1.283Z" class="color000 svgShape"/><path fill="#fff" fill-rule="evenodd" d="M10 9.5a2.5 2.5 0 1 0 0-5 2.5 2.5 0 0 0 0 5Zm0 1.5a4 4 0 1 0 0-8 4 4 0 0 0 0 8Z" class="color000 svgShape" clip-rule="evenodd"/></svg></svg>
