<svg xmlns="http://www.w3.org/2000/svg" xmlns:svgjs="http://svgjs.com/svgjs" xmlns:xlink="http://www.w3.org/1999/xlink" width="26" height="26"><svg xmlns="http://www.w3.org/2000/svg" width="26" height="26" viewBox="0 0 32 32"><path fill="#fff" d="m31.203 7.161-2.475 2.475-5.657-5.656 2.475-2.476a.5.5 0 0 0-.707-.707l-.353.353-5.303 5.304a.5.5 0 0 0 0 .707l.354.354-.73.73-.467.465-1.828-.609a.502.502 0 0 0-.512.121l-.354-.354a1.537 1.537 0 0 0-1.708-.294l-.767-.767.353-.353a.5.5 0 0 0 0-.707L8.222.443 7.868.09a.5.5 0 0 0-.707.707l2.475 2.476-5.657 5.656-2.475-2.475a.5.5 0 0 0-.707.707l.354.354 5.303 5.304a.5.5 0 0 0 .708 0l.354-.354 1.061 1.061h.001l.132.134-.609 1.828a.5.5 0 0 0 .12.511l-.354.354a1.503 1.503 0 0 0-.292 1.707l-.768.768-.354-.354a.514.514 0 0 0-.707 0L.443 23.778l-.353.354a.5.5 0 0 0 .707.707l2.475-2.475 5.657 5.656-2.475 2.476a.5.5 0 0 0 .708.707l.353-.353 5.303-5.304a.5.5 0 0 0 0-.707l-.354-.354.73-.73.465-.465 1.828.609a.506.506 0 0 0 .512-.121l.354.354a1.539 1.539 0 0 0 1.708.294l.767.767-.353.353a.5.5 0 0 0 0 .707l5.303 5.304.353.353a.498.498 0 0 0 .708 0 .5.5 0 0 0 0-.707l-2.475-2.476 5.657-5.656 2.475 2.475a.5.5 0 0 0 .707-.707l-.354-.354-5.303-5.304a.514.514 0 0 0-.707 0l-.354.354-1.061-1.061h-.001l-.133-.134.609-1.828a.5.5 0 0 0-.12-.511l.354-.354c.46-.461.558-1.149.292-1.707l.768-.768.354.354a.5.5 0 0 0 .708 0l5.303-5.304.354-.354a.5.5 0 1 0-.709-.707zM4.686 9.636l5.657-5.657L12.464 6.1l-.353.353-2.475 2.476-2.828 2.829-2.122-2.122zm3.536 2.122 2.121-2.122 2.121-2.122 1.061 1.06a.515.515 0 0 0 .708 0 .512.512 0 0 1 .707 0l.354.354-1.061 1.061-4.866 4.866.39-1.171a.5.5 0 0 0-.121-.512l-.684-.684-.73-.73zm1.414 15.556-5.657-5.657 2.122-2.122 2.828 2.829 2.475 2.475.353.353-2.121 2.122zm5.875-4.461-1.828-.609a.5.5 0 0 0-.512.121l-.354.354-.33.33-.73.73-2.121-2.122-2.121-2.122 1.061-1.061c.195-.195.195-.512 0-.707s-.195-.512 0-.707l6.365-6.364a.512.512 0 0 1 .707 0 .502.502 0 0 1 0 .708l-1.414 1.414a.5.5 0 0 0 .707.707l1.414-1.414a.514.514 0 0 1 .708 0 .499.499 0 0 1 0 .707l-1.414 1.414a.5.5 0 0 0 .708.707l1.414-1.414a.5.5 0 0 1 .707.707l-1.415 1.414a.5.5 0 0 0 .708.707l1.415-1.414a.512.512 0 0 1 .707 0 .5.5 0 0 1 0 .707l-2.964 2.964-.004.004-1.931 1.931a.5.5 0 0 0 .707.707l.3-.3.003-.002 1.631-1.631a1.23 1.23 0 0 1 1.559-.146l-3.683 3.68zm11.803-.489-5.657 5.657-2.121-2.121.353-.353 2.475-2.475 2.828-2.829 2.122 2.121zm-3.536-2.122-2.121 2.122-2.121 2.122-1.061-1.06a.516.516 0 0 0-.708 0 .512.512 0 0 1-.707 0l-.354-.354 3.559-3.56a.485.485 0 0 0 .119-.211.48.48 0 0 0 .211-.119l2.038-2.037-.391 1.172a.5.5 0 0 0 .121.512l.684.684.731.729zm.707-7.777-1.061 1.061c-.195.195-.195.512 0 .707s.195.512 0 .707l-3.529 3.528a2.22 2.22 0 0 0-.954-.459l1.655-1.655a1.501 1.501 0 0 0 0-2.121 1.48 1.48 0 0 0-.987-.411 1.488 1.488 0 0 0-.427-1.003 1.483 1.483 0 0 0-.982-.424 1.486 1.486 0 0 0-.432-.99 1.48 1.48 0 0 0-.987-.411 1.485 1.485 0 0 0-.428-1.004 1.413 1.413 0 0 0-.429-.278l.564-.564 1.828.609a.5.5 0 0 0 .512-.121l.354-.354.33-.33.73-.73 2.121 2.122 2.122 2.121zm1.414 0-2.828-2.829-2.475-2.475-.353-.353 2.121-2.121 5.657 5.657-2.122 2.121z" class="color000 svgShape"/><circle cx="25.9" cy="10.343" r=".5" fill="#fff" class="color000 svgShape" transform="rotate(-45.001 25.9 10.343)"/><circle cx="6.1" cy="21.657" r=".5" fill="#fff" class="color000 svgShape" transform="rotate(-45.001 6.1 21.657)"/><circle cx="21.657" cy="25.899" r=".5" fill="#fff" class="color000 svgShape" transform="rotate(-45.001 21.657 25.9)"/><circle cx="10.343" cy="6.1" r=".5" fill="#fff" class="color000 svgShape" transform="rotate(-45.001 10.344 6.1)"/></svg></svg>
