<svg xmlns="http://www.w3.org/2000/svg" xmlns:svgjs="http://svgjs.com/svgjs" xmlns:xlink="http://www.w3.org/1999/xlink" width="26" height="26"><svg xmlns="http://www.w3.org/2000/svg" width="26" height="26" fill="none" viewBox="0 0 16 16"><path fill="#fff" d="M13 9.75C13 8.92157 12.3284 8.25 11.5 8.25H4.5C3.67157 8.25 3 8.92157 3 9.75V10.25C3 12.2214 4.85951 14.25 8 14.25 11.1405 14.25 13 12.2214 13 10.25V9.75zM4 9.75C4 9.47386 4.22386 9.25 4.5 9.25H11.5C11.7761 9.25 12 9.47386 12 9.75V10.25C12 11.6876 10.5678 13.25 8 13.25 5.43216 13.25 4 11.6876 4 10.25V9.75zM10.75 4.5C10.75 2.98122 9.51878 1.75 8 1.75 7.03461 1.75 6.18541 2.24745 5.69473 3L4 3C3.72386 3 3.5 3.22386 3.5 3.5L3.5 5.5C3.5 5.51558 3.50071 5.53099 3.50211 5.5462H3.5V6.5C3.5 7.32843 4.17157 8 5 8H5.38199C5.38354 8.00001 5.38509 7.99998 5.38664 7.99998 5.72544 7.99998 6.0001 7.72564 6.0001 7.38723 6.0001 7.04881 5.72544 6.77448 5.38664 6.77448 5.1981 6.77448 5.02942 6.85944 4.91689 6.99312 4.6803 6.95354 4.5 6.74783 4.5 6.5V6H4.74951C5.04688 6 5.32403 5.91347 5.55717 5.76421 6.01491 6.6469 6.93703 7.25 8 7.25 9.51878 7.25 10.75 6.01878 10.75 4.5zM6.25 4.5C6.25 3.5335 7.0335 2.75 8 2.75 8.9665 2.75 9.75 3.5335 9.75 4.5 9.75 5.4665 8.9665 6.25 8 6.25 7.0335 6.25 6.25 5.4665 6.25 4.5zM5.24951 4.5C5.24951 4.77614 5.02565 5 4.74951 5L4.5 5 4.5 4 5.24951 4V4.5z" class="color212121 svgShape"/></svg></svg>
